P3
10 10 255
1 255 19 1 255 19 1 255 19 1 255 19 1 255 19 1 255 19 1 255 19 1 255 19 1 255 19 1 255 19
1 255 19 1 255 19 1 255 19 1 255 19 1 255 19 1 255 19 1 255 19 1 255 19 1 255 19 1 255 19
1 255 19 1 255 19 0 0 255 0 0 255 0 0 255 0 0 255 0 0 255 0 0 255 1 255 19 1 255 19
1 255 19 1 255 19 0 0 255 0 0 255 0 0 255 0 0 255 0 0 255 0 0 255 1 255 19 1 255 19
1 255 19 1 255 19 0 0 255 0 0 255 0 0 255 0 0 255 0 0 255 0 0 255 1 255 19 1 255 19
1 255 19 1 255 19 0 0 255 0 0 255 0 0 255 0 0 255 0 0 255 0 0 255 1 255 19 1 255 19
1 255 19 1 255 19 0 0 255 0 0 255 0 0 255 0 0 255 0 0 255 0 0 255 1 255 19 1 255 19
1 255 19 1 255 19 0 0 255 0 0 255 0 0 255 0 0 255 0 0 255 0 0 255 1 255 19 1 255 19
1 255 19 1 255 19 1 255 19 1 255 19 1 255 19 1 255 19 1 255 19 1 255 19 1 255 19 1 255 19
1 255 19 1 255 19 1 255 19 1 255 19 1 255 19 1 255 19 1 255 19 1 255 19 1 255 19 1 255 19
